<svg xmlns="http://www.w3.org/2000/svg" width="34.681" height="22.072" viewBox="0 0 34.681 22.072">
  <g id="aquarius-svgrepo-com_2_" data-name="aquarius-svgrepo-com (2)" transform="translate(0 -9.319)">
    <path id="Path_19" data-name="Path 19" d="M4.138,16.833c2.435-2.659,2.392-2.7,5.345-.624.34.239.687.468,1.026.71,4.917,3.528,4.972,3.558,7.723-1.611.852-1.6,1.442-1.278,2.342-.168q1.571,1.936,3.249,3.785a2.536,2.536,0,0,0,3.719.436c2.35-1.933,4.578-4.022,6.759-6.147.374-.364.267-1.223.381-1.854-.752-.092-1.693-.513-2.221-.212a19.961,19.961,0,0,0-3.982,2.96c-3.379,3.277-2.867,2.278-5.236-.38-.092-.1-.177-.214-.262-.323-4.381-5.54-4.443-5.572-7.615.653-.785,1.542-1.337,1.249-2.4.443a57.5,57.5,0,0,0-4.823-3.252,2.837,2.837,0,0,0-4.068.7c-1.421,1.875-2.76,3.816-4.027,5.8-.177.277.258.946.587,2.006A36.315,36.315,0,0,0,4.138,16.833Z" transform="translate(0)" fill="#f68820"/>
    <path id="Path_20" data-name="Path 20" d="M32.96,28.53A54.174,54.174,0,0,0,28.1,33.04c-1,1.048-1.916,1.111-2.814.139-1.12-1.212-2.117-2.539-3.122-3.851-1.755-2.292-2.7-2.278-4.3.17-.451.693-.773,1.469-1.174,2.2-1.151,2.083-1.455,2.164-3.314.523-1.139-1.005-2.077-2.241-3.229-3.23-1.494-1.281-2.725-1.235-3.926.283-1.543,1.953-2.912,4.048-4.271,6.138-.235.362-.193,1.379-.032,1.439a2.641,2.641,0,0,0,1.807.1,4.684,4.684,0,0,0,1.5-1.4c1.055-1.272,2.059-2.585,3.084-3.882C9.666,32.77,11,33.9,12.384,34.962c1.082.825,2.236,1.557,3.393,2.354a8.541,8.541,0,0,0,1.891-1.231,11.165,11.165,0,0,0,1.222-2.15c1.06-2.036.982-1.965,2.512-.45a17.813,17.813,0,0,0,4.143,3.343,3.8,3.8,0,0,0,3.414-.12,58.481,58.481,0,0,0,5.921-6.364,1.784,1.784,0,0,0-.086-1.762A1.9,1.9,0,0,0,32.96,28.53Z" transform="translate(-0.577 -5.925)" fill="#f68820"/>
  </g>
</svg>
