<svg xmlns="http://www.w3.org/2000/svg" width="25.967" height="21.185" viewBox="0 0 25.967 21.185">
  <g id="aries-sign-svgrepo-com" transform="translate(0)">
    <path id="Path_10" data-name="Path 10" d="M24.476,5.983a7.689,7.689,0,0,0-8.46-2.661,6.3,6.3,0,0,0-3.105,2.265,6.284,6.284,0,0,0-2.961-2.08A7.682,7.682,0,0,0,1.492,6.166a6.6,6.6,0,0,0-1.1,6.415c.6,1.7,1.947,3.34,2.949,3.592a1.489,1.489,0,0,0,1.02-2.781,4.582,4.582,0,0,1-1.34-2.519,3.747,3.747,0,0,1,.847-2.912A4.736,4.736,0,0,1,9,6.33c1.607.54,2.491,1.991,2.491,4.084V22.643a1.49,1.49,0,0,0,2.98,0V10.231c0-2.1.885-3.545,2.49-4.085A4.733,4.733,0,0,1,22.1,7.778a3.749,3.749,0,0,1,.846,2.911,4.585,4.585,0,0,1-1.338,2.519,1.49,1.49,0,0,0,1.02,2.782c1-.252,2.35-1.9,2.949-3.592A6.594,6.594,0,0,0,24.476,5.983Z" transform="translate(0 -2.947)" fill="#f68820"/>
  </g>
</svg>
