<svg xmlns="http://www.w3.org/2000/svg" width="37.726" height="28.294" viewBox="0 0 37.726 28.294">
  <g id="details-svgrepo-com" transform="translate(-5.184 -15.553)">
    <path id="Path_8980" data-name="Path 8980" d="M37.368,6H4.358A2.358,2.358,0,0,0,2,8.358V31.937a2.358,2.358,0,0,0,2.358,2.358h33.01a2.358,2.358,0,0,0,2.358-2.358V8.358A2.358,2.358,0,0,0,37.368,6ZM22.042,24.863H10.253a1.179,1.179,0,1,1,0-2.358H22.042a1.179,1.179,0,0,1,0,2.358Zm9.431-4.716H10.253a1.179,1.179,0,1,1,0-2.358H31.473a1.179,1.179,0,0,1,0,2.358Zm0-4.716H10.253a1.179,1.179,0,1,1,0-2.358H31.473a1.179,1.179,0,0,1,0,2.358Z" transform="translate(3.184 9.553)" fill="#f68820"/>
  </g>
</svg>
