<svg xmlns="http://www.w3.org/2000/svg" width="30.837" height="30.829" viewBox="0 0 30.837 30.829">
  <path id="calender-svgrepo-com_1_" data-name="calender-svgrepo-com (1)" d="M28.909,3H21.193V1.077a.964.964,0,0,0-1.927,0V3H11.557V1.077a.964.964,0,0,0-1.927,0V3h-7.7A1.927,1.927,0,0,0,0,4.924V29.015a1.927,1.927,0,0,0,1.927,1.927H28.909a1.927,1.927,0,0,0,1.927-1.927V4.924A1.927,1.927,0,0,0,28.909,3Zm0,26.018H1.927V4.924h7.7v.971a.964.964,0,1,0,1.927,0v-.97h7.709V5.9a.964.964,0,1,0,1.927,0V4.924h7.716ZM22.164,15.525h1.927a.964.964,0,0,0,.964-.964V12.634a.964.964,0,0,0-.964-.964H22.164a.964.964,0,0,0-.964.964v1.927A.964.964,0,0,0,22.164,15.525Zm0,7.709h1.927a.964.964,0,0,0,.964-.964V20.342a.964.964,0,0,0-.964-.964H22.164a.964.964,0,0,0-.964.964V22.27A.963.963,0,0,0,22.164,23.233Zm-5.782-3.855H14.455a.964.964,0,0,0-.964.964V22.27a.964.964,0,0,0,.964.964h1.927a.964.964,0,0,0,.964-.964V20.342A.964.964,0,0,0,16.382,19.379Zm0-7.709H14.455a.964.964,0,0,0-.964.964v1.927a.964.964,0,0,0,.964.964h1.927a.964.964,0,0,0,.964-.964V12.634A.964.964,0,0,0,16.382,11.67Zm-7.709,0H6.746a.964.964,0,0,0-.964.964v1.927a.964.964,0,0,0,.964.964H8.673a.964.964,0,0,0,.964-.964V12.634A.964.964,0,0,0,8.673,11.67Zm0,7.709H6.746a.964.964,0,0,0-.964.964V22.27a.964.964,0,0,0,.964.964H8.673a.964.964,0,0,0,.964-.964V20.342A.964.964,0,0,0,8.673,19.379Z" transform="translate(0 -0.113)" fill="#f68820"/>
</svg>
