<svg xmlns="http://www.w3.org/2000/svg" width="22.66" height="22.661" viewBox="0 0 22.66 22.661">
  <path id="XMLID_14_" d="M21.632,15.09H18.491a7.174,7.174,0,0,0-.657-2.135L21.518,8a4.124,4.124,0,0,0-.063-5.761c-.413-.413-1.287-1.038-4.1-1.7C15.9.2,14.616.017,14.562.009A1.03,1.03,0,0,0,13.4,1.176c.008.054.194,1.338.535,2.792.66,2.815,1.285,3.689,1.7,4.1a4.088,4.088,0,0,0,2.4,1.174L16.6,11.167a7.22,7.22,0,0,0-10.528,0L4.637,9.243a4.088,4.088,0,0,0,2.4-1.174c.413-.413,1.038-1.287,1.7-4.1.341-1.454.527-2.738.535-2.792A1.03,1.03,0,0,0,8.1.009C8.049.017,6.765.2,5.311.544c-2.815.66-3.689,1.285-4.1,1.7A4.124,4.124,0,0,0,1.146,8l3.684,4.951a7.174,7.174,0,0,0-.657,2.135H1.032a1.03,1.03,0,1,0,0,2.06H4.346a6.94,6.94,0,0,0,1.209,1.779L4.248,21.1a1.03,1.03,0,1,0,1.764,1.064l1.11-1.841a7.383,7.383,0,0,0,4.21,1.446,7.383,7.383,0,0,0,4.21-1.446l1.11,1.841A1.03,1.03,0,0,0,18.416,21.1l-1.307-2.168a6.936,6.936,0,0,0,1.209-1.779h3.314a1.03,1.03,0,0,0,0-2.06Zm-5.959-12.8C17.6,2.662,19.522,3.223,20,3.7a2.06,2.06,0,0,1-1.457,3.517h0a2.047,2.047,0,0,1-1.457-.6C16.609,6.136,16.048,4.213,15.674,2.287ZM2.665,3.7c.477-.477,2.4-1.038,4.325-1.412-.374,1.926-.935,3.849-1.412,4.325A2.06,2.06,0,0,1,2.665,3.7ZM7.718,18.173c-.052-.046-.1-.091-.152-.137L7.529,18A4.67,4.67,0,0,1,6.16,16.107a5.172,5.172,0,0,1,10.344,0A4.671,4.671,0,0,1,15.135,18l-.036.033c-.05.046-.1.091-.153.137a5.782,5.782,0,0,1-3.614,1.534A5.782,5.782,0,0,1,7.718,18.173Z" transform="translate(-0.002 0.001)" fill="#f68820"/>
</svg>
