<svg xmlns="http://www.w3.org/2000/svg" width="36.681" height="28.613" viewBox="0 0 36.681 28.613">
  <path id="capricorn-svgrepo-com" d="M30.184,70.36a6.372,6.372,0,0,0-5.14,2.607l-.869-13.061c0-.026-.009-.162-.009-.162a3.772,3.772,0,0,0-3.754-3.428,3.856,3.856,0,0,0-.45.026,6.837,6.837,0,0,0-4.276,2.066s-3.423,3.3-4.988,11.121C9.132,61.706,5.711,58.407,5.711,58.407h0a6.856,6.856,0,0,0-4.946-2.1.764.764,0,0,0,0,1.529A5.3,5.3,0,0,1,4.61,59.47l.128.131A15.848,15.848,0,0,1,7.2,63.54a27.616,27.616,0,0,1,1.869,5.675,38.437,38.437,0,0,1,.84,6.962l.022,1.512a.764.764,0,0,0,1.527.017l.029-1.528a38.429,38.429,0,0,1,.837-6.962A27.75,27.75,0,0,1,14.2,63.54a15.8,15.8,0,0,1,2.46-3.939l.128-.131a5.3,5.3,0,0,1,3.32-1.608,2.308,2.308,0,0,1,.307-.018,2.244,2.244,0,0,1,2.228,2l.016.221L23.667,75.3a19.5,19.5,0,0,1-7.93,8.162A.764.764,0,0,0,16,84.919a.754.754,0,0,0,.41-.085,20.582,20.582,0,0,0,7.878-7.55c.734,1.438,2.355,3.179,5.9,3.179,3.589,0,6.5-2.261,6.5-5.051S33.773,70.36,30.184,70.36Zm3.656,7.417a5.961,5.961,0,0,1-3.656,1.157A4.854,4.854,0,0,1,26,77.16a4.539,4.539,0,0,1-.728-1.6c.036-.087.083-.191.139-.305.009-.017.016-.035.025-.052a7.638,7.638,0,0,1,.92-1.433,4.806,4.806,0,0,1,3.831-1.885,5.962,5.962,0,0,1,3.656,1.157,2.788,2.788,0,0,1,0,4.731Z" transform="translate(0 -56.308)" fill="#f68820"/>
</svg>
