<svg id="astrology-horoscope-svgrepo-com" xmlns="http://www.w3.org/2000/svg" width="33.359" height="33.359" viewBox="0 0 33.359 33.359">
  <g id="Group_6920" data-name="Group 6920">
    <path id="Path_8982" data-name="Path 8982" d="M16.679,0A16.679,16.679,0,1,0,33.359,16.679,16.679,16.679,0,0,0,16.679,0ZM30.39,15.848l-7.516-1.734,4.088-6.541A13.618,13.618,0,0,1,30.39,15.848ZM25.786,6.4l-6.541,4.088L17.511,2.969A13.617,13.617,0,0,1,25.786,6.4ZM15.848,2.969l-1.734,7.515L7.573,6.4A13.619,13.619,0,0,1,15.848,2.969ZM6.4,7.573l4.088,6.541L2.969,15.848A13.617,13.617,0,0,1,6.4,7.573ZM2.969,17.511l7.515,1.734L6.4,25.786A13.619,13.619,0,0,1,2.969,17.511Zm4.6,9.451,6.541-4.088,1.734,7.516A13.617,13.617,0,0,1,7.573,26.962Zm5.878-10.283a3.922,3.922,0,0,1,6.456-3,3.039,3.039,0,0,0,0,5.992,3.922,3.922,0,0,1-6.456-3Zm4.06,13.71,1.734-7.516,6.541,4.088A13.619,13.619,0,0,1,17.511,30.39Zm9.451-4.6-4.088-6.541,7.515-1.734A13.617,13.617,0,0,1,26.962,25.786Z" fill="#f68820"/>
  </g>
</svg>
