<svg xmlns="http://www.w3.org/2000/svg" width="32" height="18.984" viewBox="0 0 32 18.984">
  <g id="libra-sign-svgrepo-com" transform="translate(0 -6.508)">
    <g id="Group_15" data-name="Group 15">
      <path id="Path_16" data-name="Path 16" d="M1.78,19.263H8.75a1.779,1.779,0,0,0,1.78-1.778l0-.352c-.015-1.361-.046-4.2,1.523-5.784a5.11,5.11,0,0,1,3.818-1.28c2.5,0,4.066.885,4.941,2.782a11.384,11.384,0,0,1,.77,4.633,1.779,1.779,0,0,0,1.779,1.777h6.856a1.778,1.778,0,1,0,0-3.556H25.083a12.792,12.792,0,0,0-1.043-4.342c-1.02-2.216-3.266-4.855-8.173-4.855a8.56,8.56,0,0,0-6.35,2.338A10.221,10.221,0,0,0,6.98,15.7H1.78a1.78,1.78,0,1,0,0,3.56Z" fill="#f68820"/>
      <path id="Path_17" data-name="Path 17" d="M30.221,21.934H1.78a1.779,1.779,0,1,0,0,3.558H30.221a1.779,1.779,0,0,0,0-3.558Z" fill="#f68820"/>
    </g>
  </g>
</svg>
