<svg id="lifebuoy-svgrepo-com" xmlns="http://www.w3.org/2000/svg" width="32.697" height="32.697" viewBox="0 0 32.697 32.697">
  <g id="Group_6922" data-name="Group 6922">
    <path id="Path_8984" data-name="Path 8984" d="M31,13.9a21.818,21.818,0,0,0-.427-3.523,10.585,10.585,0,0,0-2.794-5.462,10.591,10.591,0,0,0-5.462-2.795A21.908,21.908,0,0,0,18.8,1.7,2.585,2.585,0,0,0,16.37,0h-.042A2.585,2.585,0,0,0,13.9,1.7a21.908,21.908,0,0,0-3.523.426A10.591,10.591,0,0,0,4.919,4.919,10.585,10.585,0,0,0,2.125,10.38,21.818,21.818,0,0,0,1.7,13.9,2.586,2.586,0,0,0,0,16.329v.04A2.587,2.587,0,0,0,1.7,18.8a21.83,21.83,0,0,0,.427,3.523,10.585,10.585,0,0,0,2.794,5.462,10.585,10.585,0,0,0,5.462,2.794A21.818,21.818,0,0,0,13.9,31a2.585,2.585,0,0,0,2.425,1.7h.042A2.585,2.585,0,0,0,18.8,31a21.828,21.828,0,0,0,3.523-.427,10.585,10.585,0,0,0,5.462-2.794,10.585,10.585,0,0,0,2.794-5.462A21.828,21.828,0,0,0,31,18.8a2.587,2.587,0,0,0,1.7-2.427v-.04A2.585,2.585,0,0,0,31,13.9ZM18.951,2.882c3.009.165,5.9.769,8,2.866s2.7,4.99,2.866,8h-.864a12.877,12.877,0,0,0-10-10ZM10.108,16.926a6.241,6.241,0,0,0,1.422,3.427L7.677,24.2a11.658,11.658,0,0,1-2.864-5.935,11.874,11.874,0,0,1-.143-1.344h5.438ZM4.67,15.772a11.874,11.874,0,0,1,.143-1.344A11.661,11.661,0,0,1,7.677,8.492l3.853,3.853a6.245,6.245,0,0,0-1.422,3.427Zm6.583.576a5.1,5.1,0,1,1,5.1,5.1A5.1,5.1,0,0,1,11.253,16.349Zm11.336.577h5.438A11.67,11.67,0,0,1,25.021,24.2l-3.853-3.853A6.241,6.241,0,0,0,22.59,16.926Zm0-1.153a6.245,6.245,0,0,0-1.422-3.427l3.853-3.853a11.673,11.673,0,0,1,3.007,7.28ZM18.269,4.813A11.65,11.65,0,0,1,24.2,7.677L20.352,11.53a6.235,6.235,0,0,0-3.427-1.422V4.67A11.708,11.708,0,0,1,18.269,4.813Zm-3.35-2.231a1.411,1.411,0,0,1,1.409-1.409h.042a1.411,1.411,0,0,1,1.408,1.409v.979h-.007a13.085,13.085,0,0,0-2.845,0h-.007Zm-.49,2.231a11.708,11.708,0,0,1,1.344-.143v5.438a6.24,6.24,0,0,0-3.427,1.422L8.493,7.677A11.653,11.653,0,0,1,14.429,4.813Zm-8.681.935c2.1-2.1,4.99-2.7,8-2.866v.864a12.877,12.877,0,0,0-10,10H2.881C3.047,10.738,3.651,7.845,5.748,5.748ZM1.173,16.369v-.04a1.412,1.412,0,0,1,1.409-1.41h.979v.006a12.84,12.84,0,0,0,0,2.847v.006H2.583A1.411,1.411,0,0,1,1.173,16.369ZM13.746,29.816c-3.008-.165-5.9-.769-8-2.866s-2.7-4.99-2.866-8h.864a12.879,12.879,0,0,0,10,10Zm.683-1.931A11.656,11.656,0,0,1,8.492,25.02l3.853-3.853a6.241,6.241,0,0,0,3.427,1.422v5.438A11.707,11.707,0,0,1,14.429,27.885Zm3.35,2.23a1.41,1.41,0,0,1-1.408,1.409h-.042a1.411,1.411,0,0,1-1.409-1.409v-.979h.006a12.966,12.966,0,0,0,2.848,0h.005Zm.491-2.23a11.725,11.725,0,0,1-1.344.142V22.59a6.236,6.236,0,0,0,3.427-1.422L24.2,25.02A11.654,11.654,0,0,1,18.269,27.885Zm8.681-.935c-2.1,2.1-4.99,2.7-8,2.866v-.864a12.879,12.879,0,0,0,10-10h.864C29.651,21.96,29.047,24.853,26.95,26.95Zm4.574-10.582h0a1.41,1.41,0,0,1-1.408,1.41h-.979v-.006a12.959,12.959,0,0,0,0-2.847v-.006h.978a1.411,1.411,0,0,1,1.41,1.409Z" fill="#f68820"/>
  </g>
</svg>
