<svg xmlns="http://www.w3.org/2000/svg" width="21.833" height="24.015" viewBox="0 0 21.833 24.015">
  <g id="Group_6927" data-name="Group 6927" transform="translate(0)">
    <g id="leo-svgrepo-com" transform="translate(0)">
      <path id="Path_13" data-name="Path 13" d="M123.544,19.511a.5.5,0,0,0-.5.5,3,3,0,1,1-6,0,17.952,17.952,0,0,1-.115-2.03,17.553,17.553,0,0,1,1.388-6.874q.321-.757.713-1.486a6.778,6.778,0,1,0-9.493,3.056V11.492a5.875,5.875,0,0,1-.745-.63,5.773,5.773,0,1,1,9.348-1.7,18.582,18.582,0,0,0-2.213,8.819,18.936,18.936,0,0,0,.11,2.03c.317,2.307,1.793,4,4,4a4,4,0,0,0,4-4A.5.5,0,0,0,123.544,19.511Z" transform="translate(-102.213 0)" fill="#f68820"/>
      <path id="Path_14" data-name="Path 14" d="M27.767,223.875a4.5,4.5,0,1,0,4.5,4.505A4.5,4.5,0,0,0,27.767,223.875Zm2.477,6.983a3.5,3.5,0,1,1,1.026-2.478A3.483,3.483,0,0,1,30.244,230.858Z" transform="translate(-23.262 -213.374)" fill="#f68820"/>
    </g>
  </g>
</svg>
