<svg id="Group_6944" data-name="Group 6944" xmlns="http://www.w3.org/2000/svg" width="18.654" height="24.716" viewBox="0 0 18.654 24.716">
  <g id="Group_6943" data-name="Group 6943" transform="translate(0)">
    <path id="Path_8997" data-name="Path 8997" d="M36.91,0H23.051a.466.466,0,0,0-.466.466V24.25a.466.466,0,0,0,.466.466H40.773a.466.466,0,0,0,.466-.466V4.581C41.239,2.954,38.448,0,36.91,0Zm3.4,23.784H23.518V.933H36.91c1.047,0,3.4,2.523,3.4,3.648Z" transform="translate(-22.585)" fill="#f68820"/>
    <path id="Path_8998" data-name="Path 8998" d="M47.164,28.309a3.731,3.731,0,1,0-3.731-3.731A3.735,3.735,0,0,0,47.164,28.309Zm0-6.529a2.78,2.78,0,0,1,2.774,3.149l-2.425-.363L45.993,22.04A2.775,2.775,0,0,1,47.164,21.78Zm-1.942.788,1.6,2.667a.467.467,0,0,0,.33.221l2.506.376a2.8,2.8,0,1,1-4.44-3.263Z" transform="translate(-40.635 -18.049)" fill="#f68820"/>
    <rect id="Rectangle_546" data-name="Rectangle 546" width="9.806" height="0.933" transform="translate(3.264 12.125)" fill="#f68820"/>
    <rect id="Rectangle_547" data-name="Rectangle 547" width="6.529" height="0.933" transform="translate(3.264 14.457)" fill="#f68820"/>
    <rect id="Rectangle_548" data-name="Rectangle 548" width="8.394" height="0.933" transform="translate(3.264 16.788)" fill="#f68820"/>
  </g>
</svg>
