<svg xmlns="http://www.w3.org/2000/svg" width="18.624" height="23.398" viewBox="0 0 18.624 23.398">
  <path id="romantic-novel-svgrepo-com" d="M67.129,0H50a.24.24,0,0,0-.24.24V23.158a.24.24,0,0,0,.24.24H67.129a1.261,1.261,0,0,0,1.26-1.26V1.26A1.261,1.261,0,0,0,67.129,0ZM50.245.48H67.129a.781.781,0,0,1,.78.78V19.982a.781.781,0,0,1-.78.78H50.245ZM67.129,22.918H50.245V21.242H67.129a1.254,1.254,0,0,0,.78-.272v1.167A.781.781,0,0,1,67.129,22.918Zm-14.292-4.1v.649a.24.24,0,0,1-.48,0v-.649a.24.24,0,1,1,.48,0Zm0-17.362V17.036a.24.24,0,1,1-.48,0V1.461a.24.24,0,0,1,.48,0ZM66.509,21.715a.24.24,0,0,1-.24.24H51.425a.24.24,0,0,1,0-.48H66.269A.24.24,0,0,1,66.509,21.715Zm0,.76a.24.24,0,0,1-.24.24H51.425a.24.24,0,0,1,0-.48H66.269A.24.24,0,0,1,66.509,22.475Zm-1.2-11.846a2.758,2.758,0,1,0-4.8-2.673A2.755,2.755,0,0,0,56.6,6.7L56.3,6.411l.282-.049a.24.24,0,0,0,.066-.451L54.922,5.05a.24.24,0,0,0-.321.322L55.465,7.1a.24.24,0,0,0,.214.132l.035,0a.24.24,0,0,0,.2-.2l.049-.282.235.235a2.755,2.755,0,0,0-.492,3.644c.177.26,3.889,3.957,4.632,4.7a.24.24,0,0,0,.338,0c.3-.3,1.089-1.084,1.932-1.929l.622.622v.862a.24.24,0,1,0,.48,0V14.5l.231.231v.862a.24.24,0,0,0,.48,0v-.721h.721a.24.24,0,0,0,0-.48h-.862l-.231-.231h.382a.24.24,0,0,0,0-.48h-.862l-.622-.622C64.084,11.915,65.214,10.769,65.31,10.629ZM55.351,5.8l.433.216-.017,0a.24.24,0,0,0-.195.195l0,.02Zm5.158,9.016c-1.749-1.74-4.251-4.25-4.4-4.456a2.277,2.277,0,0,1,.435-3.035l3.455,3.455a.32.32,0,0,1-.183-.1.24.24,0,0,0-.352.326.8.8,0,0,0,.558.256h.031a.8.8,0,0,0,.545-.214l0,0h0l0,0a.8.8,0,0,0,.036-1.127.24.24,0,0,0-.352.326.321.321,0,0,1,.086.232v0L56.948,7.055A2.277,2.277,0,0,1,60.269,9.08a.24.24,0,1,0,.48,0,2.279,2.279,0,1,1,4.166,1.277c-.1.137-1.221,1.272-2.473,2.528h0v0C61.79,13.538,61.105,14.222,60.509,14.815Zm2.279-7.449a.24.24,0,0,1,.24-.24A1.956,1.956,0,0,1,64.981,9.08a.24.24,0,1,1-.48,0,1.476,1.476,0,0,0-1.474-1.474A.24.24,0,0,1,62.787,7.366Zm2.526,8.053a.24.24,0,0,1-.339.339l-.362-.362a.24.24,0,1,1,.339-.339Z" transform="translate(-49.765)" fill="#f68820"/>
</svg>
