<svg id="Group_6945" data-name="Group 6945" xmlns="http://www.w3.org/2000/svg" width="26.902" height="26.902" viewBox="0 0 26.902 26.902">
  <path id="Path_8999" data-name="Path 8999" d="M25.505,11.439a17.951,17.951,0,0,0-.351-2.9,8.709,8.709,0,0,0-2.3-4.494,8.714,8.714,0,0,0-4.494-2.3,18.025,18.025,0,0,0-2.9-.35,2.127,2.127,0,0,0-2-1.4h-.034a2.127,2.127,0,0,0-2,1.4,18.025,18.025,0,0,0-2.9.35,8.714,8.714,0,0,0-4.494,2.3,8.709,8.709,0,0,0-2.3,4.494,17.951,17.951,0,0,0-.351,2.9,2.128,2.128,0,0,0-1.4,2v.033a2.129,2.129,0,0,0,1.4,2,17.96,17.96,0,0,0,.352,2.9,8.709,8.709,0,0,0,2.3,4.494,8.709,8.709,0,0,0,4.494,2.3,17.951,17.951,0,0,0,2.9.351,2.126,2.126,0,0,0,2,1.4h.034a2.126,2.126,0,0,0,2-1.4,17.959,17.959,0,0,0,2.9-.351,8.709,8.709,0,0,0,4.494-2.3,8.709,8.709,0,0,0,2.3-4.494,17.959,17.959,0,0,0,.351-2.9,2.128,2.128,0,0,0,1.4-2v-.033A2.127,2.127,0,0,0,25.505,11.439ZM15.592,2.371c2.475.136,4.856.633,6.581,2.358S24.4,8.835,24.531,11.31H23.82a10.594,10.594,0,0,0-8.228-8.227ZM8.317,13.926a5.134,5.134,0,0,0,1.17,2.819l-3.17,3.17A9.592,9.592,0,0,1,3.96,15.031a9.769,9.769,0,0,1-.118-1.106H8.317Zm-4.474-.949a9.769,9.769,0,0,1,.118-1.106A9.594,9.594,0,0,1,6.316,6.987l3.17,3.17a5.138,5.138,0,0,0-1.17,2.82Zm5.417.474a4.192,4.192,0,1,1,4.192,4.192A4.2,4.2,0,0,1,9.259,13.451Zm9.327.475H23.06a9.6,9.6,0,0,1-2.474,5.989l-3.17-3.17A5.134,5.134,0,0,0,18.586,13.926Zm0-.949a5.138,5.138,0,0,0-1.17-2.82l3.17-3.17a9.6,9.6,0,0,1,2.474,5.99ZM15.031,3.96a9.585,9.585,0,0,1,4.883,2.357l-3.17,3.17a5.13,5.13,0,0,0-2.819-1.17V3.842A9.633,9.633,0,0,1,15.031,3.96ZM12.275,2.124A1.161,1.161,0,0,1,13.434.965h.034a1.161,1.161,0,0,1,1.159,1.159V2.93h-.006a10.765,10.765,0,0,0-2.34,0h-.006Zm-.4,1.835a9.633,9.633,0,0,1,1.106-.118V8.317a5.134,5.134,0,0,0-2.82,1.17L6.988,6.316A9.587,9.587,0,0,1,11.871,3.96Zm-7.142.769C6.455,3,8.835,2.507,11.31,2.371v.711A10.595,10.595,0,0,0,3.082,11.31H2.37C2.507,8.835,3,6.455,4.729,4.729ZM.965,13.468v-.033a1.161,1.161,0,0,1,1.159-1.16H2.93v0a10.564,10.564,0,0,0,0,2.343v0H2.125A1.161,1.161,0,0,1,.965,13.468ZM11.31,24.531C8.835,24.4,6.455,23.9,4.729,22.173s-2.222-4.106-2.358-6.581h.711A10.6,10.6,0,0,0,11.31,23.82Zm.562-1.589a9.59,9.59,0,0,1-4.884-2.357l3.17-3.17a5.134,5.134,0,0,0,2.82,1.17V23.06A9.632,9.632,0,0,1,11.871,22.943Zm2.756,1.835a1.16,1.16,0,0,1-1.159,1.159h-.034a1.161,1.161,0,0,1-1.159-1.159v-.805h0a10.668,10.668,0,0,0,2.343,0h0Zm.4-1.835a9.646,9.646,0,0,1-1.106.117V18.586a5.131,5.131,0,0,0,2.819-1.17l3.17,3.17A9.588,9.588,0,0,1,15.031,22.943Zm7.142-.769c-1.726,1.725-4.106,2.222-6.581,2.358V23.82a10.6,10.6,0,0,0,8.228-8.228h.711C24.4,18.068,23.9,20.448,22.173,22.173Zm3.763-8.706h0a1.16,1.16,0,0,1-1.159,1.16h-.806v0a10.662,10.662,0,0,0,0-2.343v0h.8a1.161,1.161,0,0,1,1.16,1.159Z" fill="#f68820"/>
</svg>
