<svg xmlns="http://www.w3.org/2000/svg" width="24.419" height="27.385" viewBox="0 0 24.419 27.385">
  <g id="calendar-daily-page-on-day-4-of-month-svgrepo-com_1_" data-name="calendar-daily-page-on-day-4-of-month-svgrepo-com (1)" transform="translate(-1.974)">
    <g id="Group_6947" data-name="Group 6947" transform="translate(1.974)">
      <path id="Path_9000" data-name="Path 9000" d="M17.28,24.065h2.344V22.006h.992V20.052h-.992V13.635h-2.7l-3.456,6.417v1.954H17.28v2.059Zm-1.818-4.012,1.788-3.562h.03v3.562Z" transform="translate(-4.831 -3.39)" fill="#f68820"/>
      <path id="Path_9001" data-name="Path 9001" d="M23.2,2.966h-.825v-.9a2.007,2.007,0,1,0-4.012,0v.9H16.3v-.9a2.007,2.007,0,1,0-4.012,0v.9H10.233v-.9a2.007,2.007,0,1,0-4.012,0v.9H5.167A3.2,3.2,0,0,0,1.974,6.159V24.192a3.2,3.2,0,0,0,3.193,3.193H23.2a3.2,3.2,0,0,0,3.193-3.193V6.159A3.2,3.2,0,0,0,23.2,2.966Zm-3.71-.9a.881.881,0,1,1,1.758,0V5.745a.881.881,0,1,1-1.758,0Zm-6.071,0a.881.881,0,1,1,1.758,0V5.745a.881.881,0,1,1-1.758,0Zm-6.072,0a.881.881,0,1,1,1.758,0V5.745a.881.881,0,1,1-1.758,0ZM24.515,24.193A1.316,1.316,0,0,1,23.2,25.507H5.167a1.316,1.316,0,0,1-1.315-1.315V7.662H24.515Z" transform="translate(-1.974)" fill="#f68820"/>
    </g>
  </g>
</svg>
