<svg xmlns="http://www.w3.org/2000/svg" width="26.9" height="26.9" viewBox="0 0 26.9 26.9">
  <path id="solar-system-planets-svgrepo-com" d="M13.45,0A13.376,13.376,0,0,0,6.706,1.815,2.779,2.779,0,0,0,2.578,5.537,13.447,13.447,0,1,0,13.45,0Zm0,.928a12.518,12.518,0,1,1-10.158,5.2,2.76,2.76,0,0,0,1.381.37A2.79,2.79,0,0,0,7.455,3.71a2.757,2.757,0,0,0-.239-1.125A12.472,12.472,0,0,1,13.45.928Zm-8.777.928A1.855,1.855,0,1,1,2.818,3.71,1.848,1.848,0,0,1,4.673,1.855ZM13.45,3.71a9.74,9.74,0,1,0,6.756,16.75,2.3,2.3,0,0,0,1.082.27,2.317,2.317,0,0,0,1.392-4.17A9.74,9.74,0,0,0,13.45,3.71Zm0,.928A8.821,8.821,0,0,1,21.838,16.16a2.3,2.3,0,0,0-.551-.067,2.315,2.315,0,0,0-1.8,3.778A8.813,8.813,0,1,1,13.45,4.638Zm0,2.783a6.022,6.022,0,0,0-5.873,7.386,1.852,1.852,0,0,0,1.879,3.154A6.027,6.027,0,1,0,13.45,7.421Zm0,.928A5.1,5.1,0,1,1,10.2,17.383a1.841,1.841,0,0,0,.388-1.128A1.862,1.862,0,0,0,8.731,14.4a1.841,1.841,0,0,0-.289.023A5.1,5.1,0,0,1,13.45,8.348Zm-.6,2.391a.464.464,0,0,0-.433.3l-.263.713-.757.069a.464.464,0,0,0-.379.656l.319.69-.487.584a.464.464,0,0,0,.2.732l.713.263.069.757a.464.464,0,0,0,.656.379l.69-.319.584.486a.464.464,0,0,0,.732-.2l.263-.713.757-.069a.464.464,0,0,0,.379-.656l-.319-.69.486-.584a.464.464,0,0,0-.2-.732l-.713-.263-.069-.757a.464.464,0,0,0-.656-.379l-.69.319-.584-.486a.466.466,0,0,0-.3-.107Zm.211,1.241.3.253a.464.464,0,0,0,.491.065l.359-.166.036.394a.464.464,0,0,0,.3.393l.371.137-.253.3a.464.464,0,0,0-.065.492l.166.359-.394.036a.464.464,0,0,0-.393.3l-.137.371-.3-.253a.464.464,0,0,0-.491-.065l-.359.166-.036-.394a.464.464,0,0,0-.3-.393l-.372-.137.253-.3a.464.464,0,0,0,.065-.491l-.166-.359.394-.036a.464.464,0,0,0,.393-.3ZM8.731,15.327a.928.928,0,1,1-.928.928A.921.921,0,0,1,8.731,15.327ZM21.288,17.02A1.391,1.391,0,1,1,19.9,18.411,1.384,1.384,0,0,1,21.288,17.02Z" fill="#f68820"/>
</svg>
