<svg xmlns="http://www.w3.org/2000/svg" width="24" height="24" viewBox="0 0 24 24">
  <g id="personality-insights-svgrepo-com" transform="translate(-0.449 -0.449)">
    <path id="personality--insights_1_" d="M17.54,24.262h-.56V21.944A4.39,4.39,0,0,0,13.738,17.7a.28.28,0,0,1-.06-.517,2.292,2.292,0,1,0-2.158,0,.28.28,0,0,1-.059.517A4.4,4.4,0,0,0,8.2,21.944v2.319H7.643V21.944a4.959,4.959,0,0,1,3.119-4.6,2.853,2.853,0,0,1,1.55-5.02V9.761H3.254a.28.28,0,0,1-.28-.28V5.854a2.614,2.614,0,1,1,.56,0V9.2h8.777V5.869H10.255a.28.28,0,0,1-.28-.28V.92a.28.28,0,0,1,.28-.28h4.668a.28.28,0,0,1,.28.28V5.589a.28.28,0,0,1-.28.28H12.871V9.2H21.26V5.869H18.873a.28.28,0,0,1-.243-.42L21.325.78a.291.291,0,0,1,.485,0l2.7,4.668a.28.28,0,0,1-.243.42H21.82V9.481a.28.28,0,0,1-.28.28H12.871v2.563a2.852,2.852,0,0,1,1.564,5.022,4.954,4.954,0,0,1,3.1,4.6ZM19.357,5.308h4.421L21.567,1.48Zm-8.821,0h4.108V1.2H10.536ZM3.254,1.2A2.054,2.054,0,1,0,5.308,3.254,2.056,2.056,0,0,0,3.254,1.2Z" transform="translate(-0.142 -0.142)" fill="#f68820"/>
    <rect id="_Transparent_Rectangle" width="24" height="24" transform="translate(0.449 0.449)" fill="none"/>
  </g>
</svg>
