<svg xmlns="http://www.w3.org/2000/svg" width="33.804" height="33.804" viewBox="0 0 33.804 33.804">
  <g id="internet-planetary-circulr-grid-symbol-svgrepo-com" transform="translate(0 -0.002)">
    <g id="Group_6921" data-name="Group 6921" transform="translate(0 0.002)">
      <path id="Path_8983" data-name="Path 8983" d="M16.9,0A16.9,16.9,0,1,0,33.8,16.9,16.921,16.921,0,0,0,16.9,0Zm5.882,29.852a15.293,15.293,0,0,0,.753-1.352,20.75,20.75,0,0,0,1.354-3.609A20.742,20.742,0,0,0,28.5,23.539a15.314,15.314,0,0,0,1.352-.753A14.312,14.312,0,0,1,22.784,29.854ZM3.952,22.786a15.248,15.248,0,0,0,1.352.753,20.729,20.729,0,0,0,3.609,1.354A20.724,20.724,0,0,0,10.267,28.5a15.332,15.332,0,0,0,.753,1.352A14.312,14.312,0,0,1,3.952,22.786ZM11.02,3.954a15.274,15.274,0,0,0-.753,1.352A20.745,20.745,0,0,0,8.913,8.915,20.758,20.758,0,0,0,5.3,10.269a15.31,15.31,0,0,0-1.352.753A14.31,14.31,0,0,1,11.02,3.954ZM30.779,15.567H25.9a31.353,31.353,0,0,0-.354-3.628C28.117,12.849,30.029,14.132,30.779,15.567Zm-5.235,6.3a31.381,31.381,0,0,0,.354-3.628h4.881C30.029,19.676,28.117,20.959,25.544,21.869ZM3.025,18.241H7.906a31.358,31.358,0,0,0,.354,3.628C5.687,20.959,3.775,19.676,3.025,18.241Zm5.235-6.3a31.35,31.35,0,0,0-.354,3.628H3.025C3.775,14.132,5.687,12.849,8.26,11.939Zm14.962,3.628H18.239V10.584a27.82,27.82,0,0,1,4.426.557A27.828,27.828,0,0,1,23.222,15.567Zm-.557,7.1a27.814,27.814,0,0,1-4.426.557V18.241h4.983A27.834,27.834,0,0,1,22.665,22.667ZM10.583,18.241h4.983v4.983a27.829,27.829,0,0,1-4.426-.557A27.82,27.82,0,0,1,10.583,18.241Zm.557-7.1a27.807,27.807,0,0,1,4.426-.557v4.983H10.583A27.84,27.84,0,0,1,11.139,11.141Zm7.1-3.233V3.027c1.435.75,2.718,2.662,3.628,5.235A31.338,31.338,0,0,0,18.239,7.908ZM15.565,3.027V7.908a31.334,31.334,0,0,0-3.628.354C12.847,5.689,14.131,3.777,15.565,3.027Zm0,22.873v4.881c-1.434-.75-2.718-2.662-3.628-5.235A31.332,31.332,0,0,0,15.565,25.9Zm2.674,4.881V25.9a31.351,31.351,0,0,0,3.628-.354C20.957,28.119,19.674,30.031,18.239,30.781ZM28.5,10.269a20.72,20.72,0,0,0-3.609-1.354,20.74,20.74,0,0,0-1.354-3.609,15.353,15.353,0,0,0-.753-1.352,14.311,14.311,0,0,1,7.068,7.068A15.329,15.329,0,0,0,28.5,10.269Z" transform="translate(0 -0.002)" fill="#f68820"/>
    </g>
  </g>
</svg>
