<svg xmlns="http://www.w3.org/2000/svg" width="39.204" height="26.433" viewBox="0 0 39.204 26.433">
  <g id="analyst-project-predict-prediction-svgrepo-com" transform="translate(-3.019 -2)">
    <path id="Path_8986" data-name="Path 8986" d="M22.6,10.576a4.288,4.288,0,1,0-4.288-4.288A4.281,4.281,0,0,0,22.6,10.576ZM12.641,23h-7.7a1.907,1.907,0,1,1,.046-3.813h6.677l3.829-5.636a4.9,4.9,0,0,1,4.242-2.282h5.712a4.763,4.763,0,0,1,4.242,2.282l3.844,5.636h6.723A1.907,1.907,0,1,1,40.345,23h-7.7a2.066,2.066,0,0,1-1.777-.873l-2.94-4.2-.015,10.506H17.373l-.015-10.506-2.94,4.2A2.1,2.1,0,0,1,12.641,23Z" transform="translate(0)" fill="#f68820"/>
    <path id="Path_8987" data-name="Path 8987" d="M16.066,47.44,11.533,42,7,47.44H9.713v3.627h3.634V47.44Z" transform="translate(-3.358 -33.747)" fill="#f68820"/>
    <path id="Path_8988" data-name="Path 8988" d="M191,45.627l4.533,5.44,4.533-5.44h-2.713V42H193.72v3.627Z" transform="translate(-158.596 -33.747)" fill="#f68820"/>
  </g>
</svg>
