<svg xmlns="http://www.w3.org/2000/svg" width="29.68" height="32.647" viewBox="0 0 29.68 32.647">
  <g id="Group_6928" data-name="Group 6928" transform="translate(-475 -5224)">
    <g id="leo-svgrepo-com" transform="translate(475 5224)">
      <path id="Path_13" data-name="Path 13" d="M129.815,26.523a.68.68,0,0,0-.679.679,4.079,4.079,0,1,1-8.159,0,24.4,24.4,0,0,1-.156-2.76,23.862,23.862,0,0,1,1.887-9.345q.436-1.03.969-2.021a9.214,9.214,0,1,0-12.905,4.154v-1.61a7.987,7.987,0,0,1-1.013-.857,7.849,7.849,0,1,1,12.708-2.311,25.261,25.261,0,0,0-3.008,11.989,25.753,25.753,0,0,0,.149,2.76c.431,3.136,2.437,5.444,5.444,5.444A5.443,5.443,0,0,0,130.5,27.2.681.681,0,0,0,129.815,26.523Z" transform="translate(-100.816)" fill="#f68820"/>
      <path id="Path_14" data-name="Path 14" d="M29.386,223.875A6.124,6.124,0,1,0,35.51,230,6.124,6.124,0,0,0,29.386,223.875Zm3.368,9.493a4.764,4.764,0,1,1,1.4-3.368A4.736,4.736,0,0,1,32.754,233.368Z" transform="translate(-23.262 -209.6)" fill="#f68820"/>
    </g>
  </g>
</svg>
