<svg xmlns="http://www.w3.org/2000/svg" width="31.996" height="24.106" viewBox="0 0 31.996 24.106">
  <g id="scorpion-astrological-sign-svgrepo-com" transform="translate(0 -3.946)">
    <path id="Path_18" data-name="Path 18" d="M31.455,21.75l-4.507-3.229a1.3,1.3,0,0,0-2.061,1.055V21.56c-.863-.207-2.01-.649-2.01-1.333V8.2c0-2.9-3.006-4.252-4.9-4.252A4.692,4.692,0,0,0,14.642,5.3l-.005,0A4.918,4.918,0,0,0,11.27,3.946,4.686,4.686,0,0,0,7.94,5.3c-.007.005-.013.015-.02.021A4.915,4.915,0,0,0,4.8,4.162,4.687,4.687,0,0,0,1.469,5.513,5.2,5.2,0,0,0,0,9.343a1.618,1.618,0,0,0,3.235,0C3.235,7.537,4.433,7.4,4.8,7.4A1.7,1.7,0,0,1,6.469,9.343V23.028a1.617,1.617,0,1,0,3.234,0V9.128c0-1.806,1.2-1.946,1.566-1.946,2.192,0,1.9,2.105,1.9,2.734V23.028a1.617,1.617,0,0,0,3.235,0V9.128c0-1.806,1.2-1.946,1.565-1.946A1.7,1.7,0,0,1,19.64,9.128v11.1c0,3.082,3.139,4.321,5.242,4.622v1.893a1.3,1.3,0,0,0,2.16.984l4.507-3.937a1.309,1.309,0,0,0-.094-2.044Z" fill="#f68820"/>
  </g>
</svg>
