<svg xmlns="http://www.w3.org/2000/svg" width="22.854" height="23.226" viewBox="0 0 22.854 23.226">
  <g id="search-code-interface-symbol-of-a-magnifier-with-binary-code-numbers-svgrepo-com" transform="translate(-0.346)">
    <path id="Path_9147" data-name="Path 9147" d="M4.342,5.26A1.413,1.413,0,0,1,4,5.48V5.7a1.5,1.5,0,0,0,.242-.119,1.169,1.169,0,0,0,.217-.158V6.89h.23V5.01H4.546A.857.857,0,0,1,4.342,5.26Zm2-.016a.5.5,0,0,0-.188-.175.556.556,0,0,0-.264-.06.519.519,0,0,0-.34.11.67.67,0,0,0-.2.312,1.743,1.743,0,0,0-.067.535,1.24,1.24,0,0,0,.184.761.517.517,0,0,0,.426.194.511.511,0,0,0,.339-.111.661.661,0,0,0,.2-.313A1.711,1.711,0,0,0,6.5,5.966a1.847,1.847,0,0,0-.043-.442A.918.918,0,0,0,6.345,5.244ZM6.159,6.579a.308.308,0,0,1-.533,0,1.171,1.171,0,0,1-.107-.614,1.192,1.192,0,0,1,.118-.632A.3.3,0,0,1,5.891,5.2a.321.321,0,0,1,.269.151,1.171,1.171,0,0,1,.108.615A1.183,1.183,0,0,1,6.159,6.579ZM7.8,5.244a.506.506,0,0,0-.188-.175.557.557,0,0,0-.265-.06.515.515,0,0,0-.339.11.666.666,0,0,0-.2.312,1.723,1.723,0,0,0-.068.535,1.235,1.235,0,0,0,.185.761.568.568,0,0,0,.765.083.666.666,0,0,0,.2-.313,1.715,1.715,0,0,0,.067-.532,1.824,1.824,0,0,0-.042-.442A.946.946,0,0,0,7.8,5.244ZM7.613,6.579a.308.308,0,0,1-.533,0,1.171,1.171,0,0,1-.107-.614,1.187,1.187,0,0,1,.118-.632A.294.294,0,0,1,7.344,5.2a.321.321,0,0,1,.269.151,1.171,1.171,0,0,1,.108.615A1.155,1.155,0,0,1,7.613,6.579ZM9.255,5.244a.515.515,0,0,0-.188-.175.556.556,0,0,0-.265-.06.516.516,0,0,0-.339.11.666.666,0,0,0-.2.312,1.725,1.725,0,0,0-.068.535,1.236,1.236,0,0,0,.185.761.569.569,0,0,0,.766.083.666.666,0,0,0,.2-.313,1.713,1.713,0,0,0,.068-.532,1.88,1.88,0,0,0-.042-.442A1.007,1.007,0,0,0,9.255,5.244ZM9.069,6.579a.309.309,0,0,1-.533,0,1.177,1.177,0,0,1-.107-.614,1.186,1.186,0,0,1,.119-.632A.294.294,0,0,1,8.8,5.2a.321.321,0,0,1,.269.151,1.178,1.178,0,0,1,.108.615A1.173,1.173,0,0,1,9.069,6.579Zm1.215-1.155V6.889h.23V5.009h-.148a.879.879,0,0,1-.2.251,1.413,1.413,0,0,1-.337.22V5.7a1.5,1.5,0,0,0,.242-.119A1.22,1.22,0,0,0,10.283,5.424Zm1.138-.164a1.435,1.435,0,0,1-.337.22V5.7a1.5,1.5,0,0,0,.242-.119,1.169,1.169,0,0,0,.217-.158V6.89h.231V5.01h-.148A.878.878,0,0,1,11.421,5.26Zm2-.016a.512.512,0,0,0-.189-.175.553.553,0,0,0-.264-.06.515.515,0,0,0-.339.11.659.659,0,0,0-.2.312,1.741,1.741,0,0,0-.068.535,1.239,1.239,0,0,0,.185.761.516.516,0,0,0,.426.194.508.508,0,0,0,.339-.111.663.663,0,0,0,.2-.313,1.711,1.711,0,0,0,.068-.532,1.852,1.852,0,0,0-.042-.442A.946.946,0,0,0,13.424,5.244Zm-.185,1.335a.308.308,0,0,1-.532,0,1.174,1.174,0,0,1-.108-.614,1.178,1.178,0,0,1,.12-.632.294.294,0,0,1,.253-.134.32.32,0,0,1,.268.151,1.176,1.176,0,0,1,.108.615A1.17,1.17,0,0,1,13.238,6.579ZM4.342,8.4A1.413,1.413,0,0,1,4,8.619v.222a1.5,1.5,0,0,0,.242-.119,1.145,1.145,0,0,0,.217-.158v1.465h.23V8.149H4.546A.871.871,0,0,1,4.342,8.4Zm2-.015a.5.5,0,0,0-.188-.175.563.563,0,0,0-.264-.06.522.522,0,0,0-.34.11.668.668,0,0,0-.2.313,1.738,1.738,0,0,0-.067.533,1.237,1.237,0,0,0,.184.761.569.569,0,0,0,.766.084.661.661,0,0,0,.2-.313A1.715,1.715,0,0,0,6.5,9.1a1.838,1.838,0,0,0-.043-.441A.892.892,0,0,0,6.345,8.384ZM6.159,9.718a.308.308,0,0,1-.533,0A1.172,1.172,0,0,1,5.519,9.1a1.2,1.2,0,0,1,.118-.632.3.3,0,0,1,.253-.134.323.323,0,0,1,.269.151,1.17,1.17,0,0,1,.108.614A1.186,1.186,0,0,1,6.159,9.718Zm1.444.31V8.148H7.455a.871.871,0,0,1-.2.251,1.409,1.409,0,0,1-.337.22v.222a1.476,1.476,0,0,0,.241-.119,1.169,1.169,0,0,0,.218-.158v1.465Zm1.03-1.465v1.465h.23V8.149H8.715a.868.868,0,0,1-.2.251,1.409,1.409,0,0,1-.337.22v.222a1.5,1.5,0,0,0,.242-.119A1.194,1.194,0,0,0,8.634,8.564Zm1.882-.18a.5.5,0,0,0-.187-.175.563.563,0,0,0-.264-.06.518.518,0,0,0-.339.11.669.669,0,0,0-.2.313,1.72,1.72,0,0,0-.068.533,1.233,1.233,0,0,0,.185.761.569.569,0,0,0,.766.084.665.665,0,0,0,.2-.313,1.717,1.717,0,0,0,.068-.532,1.81,1.81,0,0,0-.043-.441A.918.918,0,0,0,10.515,8.384Zm-.186,1.334a.308.308,0,0,1-.533,0A1.172,1.172,0,0,1,9.689,9.1a1.19,1.19,0,0,1,.119-.632.3.3,0,0,1,.253-.134.322.322,0,0,1,.269.151,1.171,1.171,0,0,1,.108.614A1.176,1.176,0,0,1,10.329,9.718ZM11.421,8.4a1.435,1.435,0,0,1-.337.22v.222a1.5,1.5,0,0,0,.242-.119,1.145,1.145,0,0,0,.217-.158v1.465h.231V8.149h-.148A.893.893,0,0,1,11.421,8.4Zm2-.015a.507.507,0,0,0-.189-.175.56.56,0,0,0-.264-.06.518.518,0,0,0-.339.11.674.674,0,0,0-.2.313,1.736,1.736,0,0,0-.068.533,1.237,1.237,0,0,0,.185.761.568.568,0,0,0,.765.084.663.663,0,0,0,.2-.313,1.715,1.715,0,0,0,.068-.532,1.842,1.842,0,0,0-.042-.441A.918.918,0,0,0,13.424,8.384Zm-.185,1.334a.308.308,0,0,1-.532,0A1.175,1.175,0,0,1,12.6,9.1a1.183,1.183,0,0,1,.12-.632.3.3,0,0,1,.253-.134.322.322,0,0,1,.268.151,1.175,1.175,0,0,1,.108.614A1.174,1.174,0,0,1,13.238,9.718ZM14.33,8.4a1.446,1.446,0,0,1-.337.22v.222a1.523,1.523,0,0,0,.242-.119,1.157,1.157,0,0,0,.217-.158v1.465h.23V8.149h-.147A.862.862,0,0,1,14.33,8.4ZM4.342,11.537a1.429,1.429,0,0,1-.337.22v.222a1.558,1.558,0,0,0,.242-.12,1.2,1.2,0,0,0,.217-.158v1.465h.23V11.287H4.546A.858.858,0,0,1,4.342,11.537Zm2-.015a.5.5,0,0,0-.188-.175.569.569,0,0,0-.264-.06.519.519,0,0,0-.34.11.662.662,0,0,0-.2.311,1.746,1.746,0,0,0-.067.535,1.241,1.241,0,0,0,.184.762.571.571,0,0,0,.766.083.661.661,0,0,0,.2-.313,1.713,1.713,0,0,0,.068-.532,1.836,1.836,0,0,0-.043-.442A.873.873,0,0,0,6.345,11.523Zm-.185,1.333a.308.308,0,0,1-.533,0,1.169,1.169,0,0,1-.107-.614,1.194,1.194,0,0,1,.118-.632.3.3,0,0,1,.253-.134.321.321,0,0,1,.269.151,1.173,1.173,0,0,1,.108.615A1.174,1.174,0,0,1,6.159,12.856ZM7.8,11.523a.5.5,0,0,0-.188-.175.57.57,0,0,0-.265-.06.515.515,0,0,0-.339.11.662.662,0,0,0-.2.311,1.725,1.725,0,0,0-.068.535,1.237,1.237,0,0,0,.185.762.57.57,0,0,0,.765.083.666.666,0,0,0,.2-.313,1.721,1.721,0,0,0,.067-.532,1.813,1.813,0,0,0-.042-.442A.91.91,0,0,0,7.8,11.523Zm-.187,1.333a.308.308,0,0,1-.533,0,1.169,1.169,0,0,1-.107-.614,1.189,1.189,0,0,1,.118-.632.3.3,0,0,1,.253-.134.321.321,0,0,1,.269.151,1.173,1.173,0,0,1,.108.615A1.152,1.152,0,0,1,7.613,12.856Zm1.642-1.333a.512.512,0,0,0-.188-.175.568.568,0,0,0-.265-.06.516.516,0,0,0-.339.11.662.662,0,0,0-.2.311,1.727,1.727,0,0,0-.068.535,1.237,1.237,0,0,0,.185.762.571.571,0,0,0,.766.083.666.666,0,0,0,.2-.313,1.719,1.719,0,0,0,.068-.532,1.869,1.869,0,0,0-.042-.442A.967.967,0,0,0,9.255,11.523Zm-.186,1.333a.309.309,0,0,1-.533,0,1.174,1.174,0,0,1-.107-.614,1.188,1.188,0,0,1,.119-.632.3.3,0,0,1,.253-.134.322.322,0,0,1,.269.151,1.18,1.18,0,0,1,.108.615A1.164,1.164,0,0,1,9.069,12.856Zm1.092-1.319a1.429,1.429,0,0,1-.337.22v.222a1.558,1.558,0,0,0,.242-.12,1.261,1.261,0,0,0,.218-.158v1.465h.23V11.287h-.148A.873.873,0,0,1,10.16,11.537Zm1.261,0a1.452,1.452,0,0,1-.337.22v.222a1.555,1.555,0,0,0,.242-.12,1.2,1.2,0,0,0,.217-.158v1.465h.231V11.287h-.148A.879.879,0,0,1,11.421,11.537Zm2-.015a.509.509,0,0,0-.189-.175.566.566,0,0,0-.264-.06.515.515,0,0,0-.339.11.659.659,0,0,0-.2.311,1.744,1.744,0,0,0-.068.535,1.241,1.241,0,0,0,.185.762.57.57,0,0,0,.765.083.663.663,0,0,0,.2-.313,1.717,1.717,0,0,0,.068-.532,1.84,1.84,0,0,0-.042-.442A.9.9,0,0,0,13.424,11.523Zm-.185,1.333a.308.308,0,0,1-.532,0,1.172,1.172,0,0,1-.108-.614,1.181,1.181,0,0,1,.12-.632.3.3,0,0,1,.253-.134.321.321,0,0,1,.268.151,1.179,1.179,0,0,1,.108.615A1.161,1.161,0,0,1,13.238,12.856ZM17.51,8.582a8.582,8.582,0,1,0-8.582,8.582A8.592,8.592,0,0,0,17.51,8.582ZM3.253,5.573a1.189,1.189,0,0,1,.105.608,1.17,1.17,0,0,1-.108.614.319.319,0,0,1-.266.153.307.307,0,0,1-.233-.121A6.383,6.383,0,0,1,3.253,5.573ZM14.534,11.5a.861.861,0,0,1-.2.251,1.446,1.446,0,0,1-.337.22v.222a1.571,1.571,0,0,0,.242-.119,1.2,1.2,0,0,0,.147-.107,6.413,6.413,0,0,1-10.813.155c-.006-.036-.01-.076-.018-.106a.963.963,0,0,0-.116-.279.5.5,0,0,0-.188-.175l-.011,0a6.384,6.384,0,0,1-.589-1.622.518.518,0,0,0,.336.123.513.513,0,0,0,.339-.111.663.663,0,0,0,.2-.313A1.719,1.719,0,0,0,3.592,9.1a1.814,1.814,0,0,0-.042-.441.969.969,0,0,0-.116-.279.5.5,0,0,0-.188-.175.56.56,0,0,0-.265-.06.519.519,0,0,0-.339.11.583.583,0,0,0-.135.17,6.4,6.4,0,0,1,.185-1.379.534.534,0,0,0,.29.087.513.513,0,0,0,.339-.111.663.663,0,0,0,.2-.313,1.716,1.716,0,0,0,.067-.532,1.819,1.819,0,0,0-.042-.442.986.986,0,0,0-.116-.28c-.02-.031-.052-.046-.077-.071A6.411,6.411,0,0,1,14.384,5.2a.793.793,0,0,1-.056.057,1.424,1.424,0,0,1-.337.22V5.7a1.526,1.526,0,0,0,.242-.119,1.176,1.176,0,0,0,.216-.158V6.889h.23V5.733a6.372,6.372,0,0,1,.675,2.849c0,.063-.008.124-.01.188a.134.134,0,0,1-.008.015,1.752,1.752,0,0,0-.068.534c0,.071,0,.135.01.2a6.345,6.345,0,0,1-.633,1.985h-.111ZM2.61,9.1a1.192,1.192,0,0,1,.118-.632.3.3,0,0,1,.253-.134.322.322,0,0,1,.269.151,1.17,1.17,0,0,1,.108.614,1.172,1.172,0,0,1-.108.614.308.308,0,0,1-.532,0A1.169,1.169,0,0,1,2.61,9.1Zm12.1,7.529,1.9-1.9L23.2,21.329l-1.9,1.9Z" fill="#f68820"/>
  </g>
</svg>
