<svg xmlns="http://www.w3.org/2000/svg" width="25.538" height="24.773" viewBox="0 0 25.538 24.773">
  <g id="taurus-astrological-sign-symbol-svgrepo-com" transform="translate(0)">
    <path id="Path_11" data-name="Path 11" d="M23.932.479h0c-.22,0-5.156.094-8.767,6.271a9.106,9.106,0,0,0-4.762.062C6.782.576,1.818.479,1.6.479h0A1.594,1.594,0,0,0,0,2.055,1.618,1.618,0,0,0,1.566,3.688c.144,0,3.3.172,5.919,4.505a9.391,9.391,0,1,0,10.641-.137c2.579-4.164,5.641-4.36,5.831-4.368A1.6,1.6,0,0,0,23.932.479ZM12.9,22.043a6.185,6.185,0,1,1,6.186-6.184A6.191,6.191,0,0,1,12.9,22.043Z" transform="translate(0 -0.479)" fill="#f68820"/>
  </g>
</svg>
