<svg xmlns="http://www.w3.org/2000/svg" width="25.254" height="22.105" viewBox="0 0 25.254 22.105">
  <g id="virgo-astrological-symbol-sign-svgrepo-com" transform="translate(0)">
    <path id="Path_15" data-name="Path 15" d="M25.161,13.841a5.959,5.959,0,0,0-2.313-5.915,5.243,5.243,0,0,0-3.069-1.069V5.672c0-3.146-2.6-3.677-4.239-3.677a4.05,4.05,0,0,0-2.881,1.167l0,0A4.254,4.254,0,0,0,9.744,1.995,4.052,4.052,0,0,0,6.865,3.162a.2.2,0,0,0-.017.02,4.253,4.253,0,0,0-2.7-1A4.053,4.053,0,0,0,1.271,3.348,4.506,4.506,0,0,0,0,6.662a1.4,1.4,0,0,0,2.8,0C2.8,5.1,3.832,4.979,4.15,4.979c.665,0,1.442.44,1.442,1.683v11.83a1.4,1.4,0,0,0,2.8,0V6.474a1.5,1.5,0,0,1,1.553-1.68c.335,0,1.481.089,1.481,1.9,0,2.266-.036,11.8-.036,11.8a1.4,1.4,0,0,0,2.8,0V6.474c0-1.562,1.035-1.683,1.353-1.683a1.468,1.468,0,0,1,1.443,1.683s.04,12.763.039,13.594a10.3,10.3,0,0,1-3.072,1.26A1.4,1.4,0,0,0,14.2,24.1a1.63,1.63,0,0,0,.26-.024,13.764,13.764,0,0,0,4.276-1.8,15.942,15.942,0,0,0,4.576,1.284,1.4,1.4,0,0,0,.395-2.77,18.806,18.806,0,0,1-2.329-.495A11.467,11.467,0,0,0,25.161,13.841Zm-5.336,4.09c0-.616,0-1.3.007-2.012.008-2.263.017-4.79.017-6.279a2.728,2.728,0,0,1,1.481.646A3.14,3.14,0,0,1,22.4,13.379,8.563,8.563,0,0,1,19.824,17.931Z" transform="translate(0 -1.995)" fill="#f68820"/>
  </g>
</svg>
